<svg width="800" height="238" viewBox="0 0 800 238" fill="none" xmlns="http://www.w3.org/2000/svg">
<path d="M178.815 112.441C178.643 93.331 194.466 84.0341 195.19 83.6013C186.229 70.5394 172.339 68.7547 167.458 68.6124C155.792 67.3851 144.477 75.591 138.534 75.591C132.473 75.591 123.322 68.731 113.459 68.9326C100.767 69.1283 88.8939 76.4745 82.382 87.8821C68.943 111.142 78.9659 145.324 91.8415 164.125C98.2822 173.339 105.808 183.614 115.659 183.252C125.297 182.861 128.897 177.116 140.527 177.116C152.05 177.116 155.431 183.252 165.477 183.021C175.82 182.861 182.332 173.772 188.548 164.481C195.991 153.933 198.98 143.533 199.098 142.999C198.861 142.916 179.017 135.339 178.815 112.441ZM159.837 56.2442C165.02 49.7637 168.567 40.9471 167.583 32C160.08 32.332 150.698 37.188 145.295 43.5262C140.515 49.1115 136.245 58.2661 137.348 66.8752C145.775 67.5037 154.428 62.624 159.837 56.2442Z" fill="white"/>
<path d="M318.406 181.93H304.938L297.56 158.753H271.916L264.888 181.93H251.775L277.188 103.025H292.881L318.406 181.93ZM295.336 149.029L288.664 128.426C287.958 126.321 286.63 121.364 284.684 113.561H284.447C283.664 116.917 282.413 121.874 280.699 128.426L274.14 149.029H295.336ZM383.632 152.782C383.632 162.459 381.005 170.107 375.744 175.722C371.035 180.72 365.182 183.217 358.201 183.217C350.664 183.217 345.243 180.531 341.951 175.147V205H329.307V143.735C329.307 137.657 329.147 131.426 328.839 125.034H339.959L340.664 134.052H340.902C345.118 127.257 351.518 123.86 360.105 123.86C366.819 123.86 372.423 126.51 376.907 131.817C381.385 137.135 383.632 144.12 383.632 152.782ZM370.751 153.245C370.751 147.707 369.505 143.142 367.003 139.543C364.269 135.801 360.597 133.928 355.995 133.928C352.876 133.928 350.041 134.971 347.508 137.029C344.97 139.104 343.309 141.814 342.533 145.169C342.186 146.424 341.989 147.716 341.945 149.017V158.51C341.945 162.643 343.215 166.135 345.753 168.993C348.291 171.839 351.589 173.268 355.645 173.268C360.408 173.268 364.114 171.424 366.765 167.765C369.422 164.095 370.751 159.257 370.751 153.245ZM449.09 152.782C449.09 162.459 446.462 170.107 441.202 175.722C436.487 180.72 430.639 183.217 423.653 183.217C416.115 183.217 410.694 180.531 407.403 175.147V205H394.758V143.735C394.758 137.657 394.598 131.426 394.29 125.034H405.41L406.116 134.052H406.353C410.564 127.257 416.963 123.86 425.557 123.86C432.264 123.86 437.869 126.51 442.364 131.817C446.836 137.135 449.09 144.12 449.09 152.782ZM436.202 153.245C436.202 147.707 434.951 143.142 432.448 139.543C429.714 135.801 426.055 133.928 421.452 133.928C418.333 133.928 415.498 134.971 412.954 137.029C410.415 139.104 408.761 141.814 407.984 145.169C407.598 146.735 407.391 148.009 407.391 149.017V158.51C407.391 162.643 408.666 166.135 411.192 168.993C413.731 171.833 417.028 173.268 421.097 173.268C425.865 173.268 429.572 171.424 432.217 167.765C434.874 164.095 436.202 159.257 436.202 153.245ZM522.274 159.797C522.274 166.514 519.926 171.975 515.258 176.191C510.122 180.792 502.952 183.098 493.76 183.098C485.267 183.098 478.458 181.462 473.322 178.183L476.246 167.647C481.791 170.931 487.882 172.568 494.513 172.568C499.281 172.568 502.988 171.489 505.633 169.348C508.284 167.202 509.624 164.332 509.624 160.751C509.624 157.543 508.515 154.858 506.339 152.67C504.15 150.488 500.532 148.454 495.45 146.586C481.631 141.434 474.716 133.898 474.716 123.985C474.716 117.51 477.16 112.209 482.035 108.065C486.91 103.926 493.374 101.857 501.416 101.857C508.598 101.857 514.582 103.108 519.333 105.604L516.16 115.909C511.688 113.49 506.641 112.28 500.995 112.28C496.535 112.28 493.036 113.377 490.533 115.559C488.428 117.51 487.36 119.888 487.36 122.71C487.36 125.823 488.576 128.408 490.996 130.435C493.095 132.303 496.927 134.337 502.466 136.519C509.262 139.258 514.256 142.448 517.453 146.112C520.673 149.776 522.274 154.348 522.274 159.797ZM564.187 134.521H550.25V162.145C550.25 169.171 552.705 172.675 557.627 172.675C559.887 172.675 561.761 172.485 563.244 172.088L563.594 181.687C561.103 182.618 557.823 183.086 553.761 183.086C548.767 183.086 544.865 181.562 542.047 178.515C539.242 175.467 537.831 170.362 537.831 163.176V134.497H529.528V125.01H537.831V114.593L550.25 110.846V125.01H564.187V134.521ZM626.946 153.014C626.946 161.759 624.443 168.939 619.449 174.554C614.224 180.335 607.273 183.217 598.609 183.217C590.246 183.217 583.598 180.448 578.64 174.916C573.682 169.372 571.203 162.388 571.203 153.962C571.203 145.146 573.765 137.924 578.871 132.309C583.989 126.688 590.881 123.878 599.546 123.878C607.896 123.878 614.604 126.653 619.68 132.191C624.532 137.562 626.946 144.499 626.946 153.014ZM613.839 153.304C613.839 148.092 612.712 143.622 610.452 139.881C607.801 135.363 604.006 133.104 599.089 133.104C594.024 133.104 590.14 135.363 587.494 139.881C585.229 143.622 584.102 148.17 584.102 153.541C584.102 158.759 585.229 163.241 587.494 166.971C590.229 171.489 594.042 173.748 598.982 173.748C603.816 173.748 607.605 171.441 610.345 166.858C612.67 163.028 613.839 158.528 613.839 153.304ZM668.063 136.151C666.748 135.914 665.414 135.797 664.078 135.801C659.63 135.801 656.19 137.473 653.77 140.841C651.671 143.806 650.615 147.553 650.615 152.077V181.93H637.971V142.952C637.982 136.979 637.859 131.007 637.603 125.04H648.616L649.079 135.926H649.429C650.769 132.185 652.869 129.167 655.751 126.908C658.389 124.934 661.595 123.865 664.89 123.86C666.059 123.86 667.114 123.943 668.051 124.091L668.063 136.151ZM724.612 150.79C724.644 152.712 724.49 154.632 724.15 156.524H686.217C686.359 162.145 688.198 166.449 691.721 169.414C694.917 172.058 699.051 173.386 704.128 173.386C709.744 173.386 714.868 172.497 719.476 170.7L721.457 179.469C716.072 181.817 709.714 182.985 702.378 182.985C693.553 182.985 686.626 180.388 681.585 175.206C676.556 170.018 674.035 163.046 674.035 154.312C674.035 145.739 676.378 138.594 681.069 132.896C685.98 126.813 692.616 123.771 700.967 123.771C709.169 123.771 715.378 126.813 719.595 132.896C722.934 137.716 724.612 143.693 724.612 150.79ZM712.555 147.511C712.644 143.758 711.814 140.527 710.1 137.794C707.912 134.272 704.543 132.517 700.03 132.517C695.896 132.517 692.527 134.23 689.965 137.669C687.86 140.402 686.608 143.687 686.223 147.5L712.555 147.511Z" fill="white"/>
<path d="M268.268 75.1285C264.751 75.1285 261.709 74.9566 259.177 74.6661V36.518C262.718 35.971 266.298 35.7014 269.881 35.7116C284.382 35.7116 291.06 42.8444 291.06 54.4714C291.06 67.8831 283.172 75.1285 268.268 75.1285ZM270.391 40.6032C268.434 40.6032 266.768 40.7218 265.386 41.0064V70.0058C266.133 70.1243 267.568 70.1777 269.585 70.1777C279.086 70.1777 284.495 64.7703 284.495 54.6434C284.495 45.6133 279.602 40.6032 270.391 40.6032ZM311.871 75.4191C303.698 75.4191 298.402 69.318 298.402 61.035C298.402 52.4022 303.811 46.2477 312.333 46.2477C320.387 46.2477 325.802 52.0583 325.802 60.5784C325.802 69.318 320.221 75.4191 311.871 75.4191ZM312.108 50.7894C307.619 50.7894 304.742 54.9873 304.742 60.8571C304.742 66.6143 307.678 70.8121 312.049 70.8121C316.42 70.8121 319.355 66.3238 319.355 60.7385C319.355 55.0466 316.479 50.7894 312.108 50.7894ZM372.406 46.8228L363.658 74.7846H357.958L354.335 62.6418C353.434 59.6715 352.684 56.6577 352.087 53.6117H351.968C351.512 56.6593 350.646 59.7128 349.727 62.6418L345.872 74.7846H340.113L331.881 46.8228H338.268L341.435 60.116C342.183 63.2821 342.811 66.2704 343.333 69.0927H343.452C343.909 66.7388 344.656 63.798 345.753 60.1753L349.727 46.8288H354.791L358.593 59.8907C359.512 63.0568 360.259 66.1637 360.841 69.0986H361.007C361.41 66.223 362.045 63.1695 362.905 59.8907L366.303 46.8288L372.406 46.8228ZM404.609 74.7846H398.394V58.7285C398.394 53.7836 396.496 51.3053 392.754 51.3053C389.071 51.3053 386.538 54.4714 386.538 58.1534V74.7846H380.323V54.8153C380.323 52.3429 380.264 49.6925 380.092 46.8169H385.56L385.85 51.1333H386.022C387.695 48.145 391.087 46.2477 394.889 46.2477C400.76 46.2477 404.615 50.7361 404.615 58.0408L404.609 74.7846ZM421.749 74.7846H415.528V33.9922H421.749V74.7846ZM444.41 75.4191C436.244 75.4191 430.942 69.318 430.942 61.035C430.942 52.4022 436.35 46.2477 444.867 46.2477C452.927 46.2477 458.336 52.0583 458.336 60.5784C458.342 69.318 452.755 75.4191 444.41 75.4191ZM444.642 50.7894C440.152 50.7894 437.276 54.9873 437.276 60.8571C437.276 66.6143 440.217 70.8121 444.576 70.8121C448.953 70.8121 451.883 66.3238 451.883 60.7385C451.889 55.0466 449.018 50.7894 444.642 50.7894ZM482.841 74.7846L482.391 71.5651H482.224C480.327 74.1562 477.557 75.4191 474.046 75.4191C469.035 75.4191 465.476 71.909 465.476 67.1894C465.476 60.2879 471.46 56.7186 481.821 56.7186V56.2027C481.821 52.5207 479.87 50.6768 476.015 50.6768C473.257 50.6768 470.838 51.3705 468.708 52.752L467.445 48.6668C470.031 47.0541 473.257 46.2477 477.047 46.2477C484.354 46.2477 488.042 50.1017 488.042 57.8155V68.1144C488.042 70.9366 488.167 73.1245 488.446 74.7906L482.841 74.7846ZM481.987 60.8571C475.084 60.8571 471.62 62.5291 471.62 66.4957C471.62 69.4306 473.406 70.8655 475.885 70.8655C479.046 70.8655 481.987 68.4523 481.987 65.1735V60.8571ZM518.224 74.7846L517.933 70.2963H517.761C515.976 73.6878 512.975 75.4191 508.782 75.4191C502.039 75.4191 497.045 69.4899 497.045 61.1476C497.045 52.4022 502.223 46.2418 509.292 46.2418C513.034 46.2418 515.686 47.5047 517.18 50.0424H517.305V33.9922H523.526V67.2487C523.526 69.9524 523.591 72.4841 523.757 74.7846H518.224ZM517.305 58.3313C517.305 54.4181 514.713 51.08 510.757 51.08C506.149 51.08 503.332 55.1651 503.332 60.9164C503.332 66.555 506.256 70.4149 510.633 70.4149C514.541 70.4149 517.305 67.0175 517.305 62.9916V58.3313ZM562.971 75.4191C554.804 75.4191 549.508 69.318 549.508 61.035C549.508 52.4022 554.917 46.2477 563.434 46.2477C571.493 46.2477 576.902 52.0583 576.902 60.5784C576.908 69.318 571.327 75.4191 562.971 75.4191ZM563.202 50.7894C558.719 50.7894 555.842 54.9873 555.842 60.8571C555.842 66.6143 558.778 70.8121 563.143 70.8121C567.52 70.8121 570.45 66.3238 570.45 60.7385C570.462 55.0466 567.585 50.7894 563.202 50.7894ZM610.328 74.7846H604.106V58.7285C604.106 53.7836 602.209 51.3053 598.466 51.3053C594.783 51.3053 592.257 54.4714 592.257 58.1534V74.7846H586.036V54.8153C586.036 52.3429 585.976 49.6925 585.804 46.8169H591.272L591.563 51.1333H591.735C593.401 48.145 596.8 46.2418 600.595 46.2418C606.467 46.2418 610.328 50.7301 610.328 58.0348V74.7846ZM652.145 51.4831H645.307V65.0609C645.307 68.5176 646.505 70.2429 648.925 70.2429C650.022 70.2429 650.941 70.1243 651.683 69.9524L651.855 74.672C650.651 75.1345 649.037 75.3657 647.033 75.3657C642.134 75.3657 639.204 72.662 639.204 65.5826V51.4831H635.124V46.8228H639.204V41.7001L645.307 39.8561V46.8169H652.145V51.4831ZM685.049 74.7846H678.839V58.8471C678.839 53.8429 676.947 51.3112 673.199 51.3112C669.979 51.3112 666.978 53.499 666.978 57.9281V74.7846H660.768V33.9922H666.978V50.7894H667.102C669.06 47.7419 671.894 46.2418 675.512 46.2418C681.431 46.2418 685.049 50.8428 685.049 58.1534V74.7846ZM718.759 62.2979H700.107C700.225 67.5926 703.73 70.5809 708.92 70.5809C711.678 70.5809 714.216 70.1184 716.458 69.2587L717.424 73.5751C714.779 74.7254 711.666 75.3005 708.042 75.3005C699.294 75.3005 694.117 69.7745 694.117 61.2069C694.117 52.6334 699.419 46.1884 707.342 46.1884C714.489 46.1884 718.972 51.4831 718.972 59.4815C719.013 60.4255 718.941 61.3708 718.759 62.2979ZM713.059 57.8688C713.059 53.5524 710.883 50.5048 706.909 50.5048C703.339 50.5048 700.516 53.6117 700.113 57.8688H713.059Z" fill="white"/>
<path d="M770.37 4.74074C784 4.74074 795.259 16 795.259 29.6296V207.407C795.259 221.037 784 232.296 770.37 232.296H29.6296C16 232.296 4.74074 221.037 4.74074 207.407V29.6296C4.74074 16 16 4.74074 29.6296 4.74074H770.37ZM770.37 0H29.6296C13.037 0 0 13.6296 0 29.6296V207.407C0 224 13.037 237.037 29.6296 237.037H770.37C786.963 237.037 800 224 800 207.407V29.6296C800 13.6296 786.963 0 770.37 0Z" fill="white"/>
</svg>
