<svg width="115" height="117" viewBox="0 0 115 117" fill="none" xmlns="http://www.w3.org/2000/svg">
<g filter="url(#filter0_f_1105_5912)">
<path d="M46.5237 82.0975C23.9593 70.1124 23.1487 50.9837 26.0091 42.8064C28.8696 34.6291 35.4643 29.4958 40.739 31.3409C46.0136 33.186 47.9707 41.3107 45.1103 49.488C42.2499 57.6653 51.7983 83.9425 46.5237 82.0975Z" fill="url(#paint0_linear_1105_5912)"/>
</g>
<g filter="url(#filter1_f_1105_5912)">
<ellipse cx="65.5586" cy="68.2889" rx="29.3423" ry="17.9449" transform="rotate(136.721 65.5586 68.2889)" fill="url(#paint1_linear_1105_5912)"/>
</g>
<g filter="url(#filter2_f_1105_5912)">
<path d="M53.9272 38.7565C50.6634 35.2904 47.3067 30.9298 50.6956 27.7386C54.0846 24.5474 62.9359 23.7341 66.1997 27.2002C69.4635 30.6663 69.3621 36.0631 65.9731 39.2542C62.5842 42.4454 57.191 42.2226 53.9272 38.7565Z" fill="url(#paint2_linear_1105_5912)"/>
</g>
<g filter="url(#filter3_f_1105_5912)">
<path d="M70.7616 39.5495C68.8144 37.4817 65.2583 30.1163 67.3048 28.1892C69.3512 26.2622 76.2252 30.5033 78.1724 32.5711C80.1196 34.6389 91.9709 44.0111 89.9245 45.9382C87.878 47.8652 72.7087 41.6173 70.7616 39.5495Z" fill="url(#paint3_linear_1105_5912)"/>
</g>
<circle cx="43.6506" cy="74.2322" r="12.7005" stroke="white" stroke-width="1.18144"/>
<circle cx="43.6506" cy="47.6496" r="12.7005" stroke="white" stroke-width="1.18144"/>
<circle cx="70.2326" cy="47.6496" r="12.7005" stroke="white" stroke-width="1.18144"/>
<circle cx="70.2326" cy="74.2322" r="12.7005" stroke="white" stroke-width="1.18144"/>
<circle cx="57.2365" cy="60.6457" r="12.7005" stroke="white" stroke-width="1.18144"/>
<circle cx="56.9412" cy="60.9412" r="41.3505" stroke="white" stroke-width="1.18144"/>
<defs>
<filter id="filter0_f_1105_5912" x="0.832033" y="6.96533" width="71.3125" height="99.2246" filterUnits="userSpaceOnUse" color-interpolation-filters="sRGB">
<feFlood flood-opacity="0" result="BackgroundImageFix"/>
<feBlend mode="normal" in="SourceGraphic" in2="BackgroundImageFix" result="shape"/>
<feGaussianBlur stdDeviation="12" result="effect1_foregroundBlur_1105_5912"/>
</filter>
<filter id="filter1_f_1105_5912" x="16.9023" y="20.3003" width="97.3125" height="95.977" filterUnits="userSpaceOnUse" color-interpolation-filters="sRGB">
<feFlood flood-opacity="0" result="BackgroundImageFix"/>
<feBlend mode="normal" in="SourceGraphic" in2="BackgroundImageFix" result="shape"/>
<feGaussianBlur stdDeviation="12" result="effect1_foregroundBlur_1105_5912"/>
</filter>
<filter id="filter2_f_1105_5912" x="25.2813" y="0.947268" width="67.3008" height="64.562" filterUnits="userSpaceOnUse" color-interpolation-filters="sRGB">
<feFlood flood-opacity="0" result="BackgroundImageFix"/>
<feBlend mode="normal" in="SourceGraphic" in2="BackgroundImageFix" result="shape"/>
<feGaussianBlur stdDeviation="12" result="effect1_foregroundBlur_1105_5912"/>
</filter>
<filter id="filter3_f_1105_5912" x="42.6914" y="3.69922" width="71.4687" height="66.603" filterUnits="userSpaceOnUse" color-interpolation-filters="sRGB">
<feFlood flood-opacity="0" result="BackgroundImageFix"/>
<feBlend mode="normal" in="SourceGraphic" in2="BackgroundImageFix" result="shape"/>
<feGaussianBlur stdDeviation="12" result="effect1_foregroundBlur_1105_5912"/>
</filter>
<linearGradient id="paint0_linear_1105_5912" x1="37.6942" y1="40.0457" x2="30.3806" y2="60.9535" gradientUnits="userSpaceOnUse">
<stop offset="0.619792" stop-color="#FFB800"/>
</linearGradient>
<linearGradient id="paint1_linear_1105_5912" x1="53.467" y1="68.2889" x2="94.9009" y2="68.2889" gradientUnits="userSpaceOnUse">
<stop offset="0.619792" stop-color="#BD0E36"/>
</linearGradient>
<linearGradient id="paint2_linear_1105_5912" x1="62.5921" y1="30.5972" x2="53.9272" y2="38.7565" gradientUnits="userSpaceOnUse">
<stop offset="0.619792" stop-color="#E8BD01"/>
</linearGradient>
<linearGradient id="paint3_linear_1105_5912" x1="75.9939" y1="34.6225" x2="70.7615" y2="39.5496" gradientUnits="userSpaceOnUse">
<stop offset="0.619792" stop-color="#037041"/>
</linearGradient>
</defs>
</svg>
